<svg xmlns="http://www.w3.org/2000/svg" width="44" height="44" viewBox="0 0 44 44" role="img" aria-label="souls">
  <defs><linearGradient id="g" x1="0" y1="0" x2="1" y2="1"><stop offset="0" stop-color="#8FD0FF"></stop><stop offset="1" stop-color="#C58CFF"></stop></linearGradient></defs>
  <rect x="2" y="2" width="40" height="40" rx="13" fill="url(#g)"></rect>
  <g transform="translate(10.50 10.50) scale(0.9583)"><path d="M12 3c-5 0-8 3.5-8 8 0 3 1.5 5 3 6 0-1.5 1-2.5 2-2.5s2 1 2 2.5c0 1-.5 2-1.5 2.5h5C21 19 20 11 20 11c0-4.5-3-8-8-8z" fill="none" stroke="#fff" stroke-width="1.8" stroke-linejoin="round"></path><circle cx="9" cy="10" r="1.4" fill="#fff"></circle><circle cx="15" cy="10" r="1.4" fill="#fff"></circle></g>
</svg>