<svg xmlns="http://www.w3.org/2000/svg" width="1200" height="448" viewBox="0 0 1200 448" role="img" aria-label="StarEnchants — a deeply-unified custom-enchantments and armor-sets plugin for Minecraft">
  <defs>
    <radialGradient id="card" cx="50%" cy="0%" r="115%">
      <stop offset="0" stop-color="#6E3F9E"></stop><stop offset="0.48" stop-color="#4A2C7A"></stop><stop offset="1" stop-color="#2A1B4A"></stop>
    </radialGradient>
    <linearGradient id="wm" x1="0" y1="0" x2="1" y2="0">
      <stop offset="0" stop-color="#FFC4E6"></stop><stop offset="0.5" stop-color="#FFE9A8"></stop><stop offset="1" stop-color="#C9B6FF"></stop>
    </linearGradient>
    
    <radialGradient id="hGlow" cx="50%" cy="50%" r="50%">
      <stop offset="0" stop-color="#FFFFFF" stop-opacity="0.85"></stop>
      <stop offset="0.5" stop-color="#E9C9FF" stop-opacity="0.4"></stop>
      <stop offset="1" stop-color="#E9C9FF" stop-opacity="0"></stop>
    </radialGradient>
    <linearGradient id="hStar" x1="0" y1="0" x2="1" y2="1">
      <stop offset="0" stop-color="#FFD6EE"></stop><stop offset="0.5" stop-color="#D6B0FF"></stop><stop offset="1" stop-color="#A8C2FF"></stop>
    </linearGradient>
    <linearGradient id="hGold" x1="0" y1="0" x2="1" y2="1">
      <stop offset="0" stop-color="#FFE9A8"></stop><stop offset="1" stop-color="#FFC75A"></stop>
    </linearGradient>
    <filter id="og" x="-10%" y="-10%" width="120%" height="130%"><feGaussianBlur stdDeviation="9"></feGaussianBlur></filter>
  </defs>
  <rect x="10" y="10" width="1180" height="428" rx="30" fill="none" stroke="#C79BFF" stroke-opacity="0.45" stroke-width="2" filter="url(#og)"></rect>
  <rect x="10" y="10" width="1180" height="428" rx="30" fill="url(#card)"></rect>
  <rect x="11.5" y="11.5" width="1177" height="425" rx="28.5" fill="none" stroke="#FFD676" stroke-opacity="0.7" stroke-width="1.5"></rect>
  <rect x="18" y="18" width="1164" height="412" rx="24" fill="none" stroke="#FFFFFF" stroke-opacity="0.05" stroke-width="6"></rect>
  <path transform="translate(40 40) scale(0.800)" d="M0 -10 C0.7 -3 3 -0.7 10 0 C3 0.7 0.7 3 0 10 C-0.7 3 -3 0.7 -10 0 C-3 -0.7 -0.7 -3 0 -10 Z" fill="#FFD976" opacity="0.9"></path><path transform="translate(1160 40) scale(0.800)" d="M0 -10 C0.7 -3 3 -0.7 10 0 C3 0.7 0.7 3 0 10 C-0.7 3 -3 0.7 -10 0 C-3 -0.7 -0.7 -3 0 -10 Z" fill="#FFD976" opacity="0.9"></path><path transform="translate(40 408) scale(0.800)" d="M0 -10 C0.7 -3 3 -0.7 10 0 C3 0.7 0.7 3 0 10 C-0.7 3 -3 0.7 -10 0 C-3 -0.7 -0.7 -3 0 -10 Z" fill="#FFD976" opacity="0.85"></path><path transform="translate(1160 408) scale(0.800)" d="M0 -10 C0.7 -3 3 -0.7 10 0 C3 0.7 0.7 3 0 10 C-0.7 3 -3 0.7 -10 0 C-3 -0.7 -0.7 -3 0 -10 Z" fill="#FFD976" opacity="0.85"></path>
  <path transform="translate(150 86) scale(0.500)" d="M0 -10 C0.7 -3 3 -0.7 10 0 C3 0.7 0.7 3 0 10 C-0.7 3 -3 0.7 -10 0 C-3 -0.7 -0.7 -3 0 -10 Z" fill="#FFB3DD" opacity="0.8"></path><path transform="translate(1040 96) scale(0.550)" d="M0 -10 C0.7 -3 3 -0.7 10 0 C3 0.7 0.7 3 0 10 C-0.7 3 -3 0.7 -10 0 C-3 -0.7 -0.7 -3 0 -10 Z" fill="#9FE3FF" opacity="0.8"></path><path transform="translate(250 360) scale(0.450)" d="M0 -10 C0.7 -3 3 -0.7 10 0 C3 0.7 0.7 3 0 10 C-0.7 3 -3 0.7 -10 0 C-3 -0.7 -0.7 -3 0 -10 Z" fill="#FFB3DD" opacity="0.7"></path><path transform="translate(980 330) scale(0.450)" d="M0 -10 C0.7 -3 3 -0.7 10 0 C3 0.7 0.7 3 0 10 C-0.7 3 -3 0.7 -10 0 C-3 -0.7 -0.7 -3 0 -10 Z" fill="#FFE9A8" opacity="0.7"></path>
  <g transform="translate(544.90 52.90) scale(0.95)">
    <circle cx="58" cy="58" r="55" fill="url(#hGlow)"></circle>
    <path d="M58 13 C61 44 72 55 103 58 C72 61 61 72 58 103 C55 72 44 61 13 58 C44 55 55 44 58 13 Z" fill="url(#hStar)"></path>
    <path d="M58 31 C60 51 66 56 85 58 C66 60 60 65 58 85 C56 65 50 60 31 58 C50 56 56 51 58 31 Z" fill="#FFFFFF" opacity="0.4"></path>
    <circle cx="49" cy="47" r="5" fill="#FFFFFF" opacity="0.95"></circle>
    <path d="M97 24 C98 31 100 33 107 34 C100 35 98 37 97 44 C96 37 94 35 87 34 C94 33 96 31 97 24 Z" fill="url(#hGold)"></path>
    <path d="M21 84 C22 89 23.5 90.5 28 91 C23.5 91.5 22 93 21 98 C20 93 18.5 91.5 14 91 C18.5 90.5 20 89 21 84 Z" fill="#FFB3DD"></path>
  </g>
  <text x="600" y="210" font-family="&#39;Trebuchet MS&#39;,&#39;Segoe UI&#39;,system-ui,-apple-system,Helvetica,Arial,sans-serif" font-size="62" font-weight="700" fill="url(#wm)" text-anchor="middle" dominant-baseline="alphabetic">StarEnchants</text>
  <text x="600" y="250" font-family="Georgia,&#39;Times New Roman&#39;,serif" font-size="25" font-style="italic" fill="#F0DEFF" text-anchor="middle">Legendary Open-Source Cosmic Enchantments</text>
  <text x="600" y="288" font-family="&#39;Trebuchet MS&#39;,&#39;Segoe UI&#39;,system-ui,-apple-system,Helvetica,Arial,sans-serif" font-size="15.5" font-weight="600" fill="#C6AEE6" text-anchor="middle">A deeply-unified custom-enchantments &amp; armor-sets plugin for Modern Minecraft.</text>
  <text x="600" y="311" font-family="&#39;Trebuchet MS&#39;,&#39;Segoe UI&#39;,system-ui,-apple-system,Helvetica,Arial,sans-serif" font-size="15.5" font-weight="600" fill="#C6AEE6" text-anchor="middle">One universal jar across Paper 1.17.1 → 26.1.x and Folia.</text>
  <rect x="129.5" y="348" width="202" height="30" rx="15" fill="#FFFFFF"></rect><path d="M144.5 348 H217.5 V378 H144.5 A15 15 0 0 1 129.5 363 V363 A15 15 0 0 1 144.5 348 Z" fill="#C79BFF"></path><text x="173.5" y="363.5" font-family="&#39;Trebuchet MS&#39;,&#39;Segoe UI&#39;,system-ui,-apple-system,Helvetica,Arial,sans-serif" font-size="15" font-weight="700" fill="#3A2160" text-anchor="middle" dominant-baseline="central">release</text><text x="274.5" y="363.5" font-family="&#39;Trebuchet MS&#39;,&#39;Segoe UI&#39;,system-ui,-apple-system,Helvetica,Arial,sans-serif" font-size="15" font-weight="700" fill="#7A5BD0" text-anchor="middle" dominant-baseline="central">v1.0.0-beta</text><rect x="340.5" y="348" width="228" height="30" rx="15" fill="#FFFFFF"></rect><path d="M355.5 348 H409.5 V378 H355.5 A15 15 0 0 1 340.5 363 V363 A15 15 0 0 1 355.5 348 Z" fill="#FF9FCF"></path><text x="375" y="363.5" font-family="&#39;Trebuchet MS&#39;,&#39;Segoe UI&#39;,system-ui,-apple-system,Helvetica,Arial,sans-serif" font-size="15" font-weight="700" fill="#3A2160" text-anchor="middle" dominant-baseline="central">paper</text><text x="489" y="363.5" font-family="&#39;Trebuchet MS&#39;,&#39;Segoe UI&#39;,system-ui,-apple-system,Helvetica,Arial,sans-serif" font-size="15" font-weight="700" fill="#6B4E97" text-anchor="middle" dominant-baseline="central">1.17.1 → 26.1.x</text><rect x="577.5" y="348" width="172" height="30" rx="15" fill="#FFFFFF"></rect><path d="M592.5 348 H646.5 V378 H592.5 A15 15 0 0 1 577.5 363 V363 A15 15 0 0 1 592.5 348 Z" fill="#9FE3FF"></path><text x="612" y="363.5" font-family="&#39;Trebuchet MS&#39;,&#39;Segoe UI&#39;,system-ui,-apple-system,Helvetica,Arial,sans-serif" font-size="15" font-weight="700" fill="#1C4A5E" text-anchor="middle" dominant-baseline="central">folia</text><text x="698" y="363.5" font-family="&#39;Trebuchet MS&#39;,&#39;Segoe UI&#39;,system-ui,-apple-system,Helvetica,Arial,sans-serif" font-size="15" font-weight="700" fill="#2E9E6B" text-anchor="middle" dominant-baseline="central">supported</text><rect x="758.5" y="348" width="119" height="30" rx="15" fill="#FFFFFF"></rect><path d="M773.5 348 H818.5 V378 H773.5 A15 15 0 0 1 758.5 363 V363 A15 15 0 0 1 773.5 348 Z" fill="#FFD86B"></path><text x="788.5" y="363.5" font-family="&#39;Trebuchet MS&#39;,&#39;Segoe UI&#39;,system-ui,-apple-system,Helvetica,Arial,sans-serif" font-size="15" font-weight="700" fill="#5A4410" text-anchor="middle" dominant-baseline="central">java</text><text x="848" y="363.5" font-family="&#39;Trebuchet MS&#39;,&#39;Segoe UI&#39;,system-ui,-apple-system,Helvetica,Arial,sans-serif" font-size="15" font-weight="700" fill="#C28A1E" text-anchor="middle" dominant-baseline="central">17+</text><rect x="886.5" y="348" width="184" height="30" rx="15" fill="#FFFFFF"></rect><path d="M901.5 348 H974.5 V378 H901.5 A15 15 0 0 1 886.5 363 V363 A15 15 0 0 1 901.5 348 Z" fill="#FFB0D9"></path><text x="930.5" y="363.5" font-family="&#39;Trebuchet MS&#39;,&#39;Segoe UI&#39;,system-ui,-apple-system,Helvetica,Arial,sans-serif" font-size="15" font-weight="700" fill="#5A2147" text-anchor="middle" dominant-baseline="central">license</text><text x="1022.5" y="363.5" font-family="&#39;Trebuchet MS&#39;,&#39;Segoe UI&#39;,system-ui,-apple-system,Helvetica,Arial,sans-serif" font-size="15" font-weight="700" fill="#D2569B" text-anchor="middle" dominant-baseline="central">AGPL 3.0</text>
</svg>