<svg xmlns="http://www.w3.org/2000/svg" width="44" height="44" viewBox="0 0 44 44" role="img" aria-label="StarEnchants">
  <defs>
    <linearGradient id="g" x1="0" y1="0" x2="1" y2="1">
      <stop offset="0" stop-color="#FF9FCF"></stop><stop offset="1" stop-color="#B98CFF"></stop>
    </linearGradient>
    <radialGradient id="sGlow" cx="50%" cy="46%" r="55%">
      <stop offset="0" stop-color="#FFFFFF" stop-opacity="0.9"></stop>
      <stop offset="0.6" stop-color="#FFFFFF" stop-opacity="0.18"></stop>
      <stop offset="1" stop-color="#FFFFFF" stop-opacity="0"></stop>
    </radialGradient>
  </defs>
  <rect x="2" y="2" width="40" height="40" rx="13" fill="url(#g)"></rect>
  <circle cx="22" cy="21" r="14" fill="url(#sGlow)"></circle>
  <path d="M22 7 C23.2 18 26 20.8 37 22 C26 23.2 23.2 26 22 37 C20.8 26 18 23.2 7 22 C18 20.8 20.8 18 22 7 Z" fill="#fff"></path>
  <path d="M22 13 C22.7 19.6 24.4 21.3 31 22 C24.4 22.7 22.7 24.4 22 31 C21.3 24.4 19.6 22.7 13 22 C19.6 21.3 21.3 19.6 22 13 Z" fill="#FFE3F2" opacity="0.55"></path>
  <circle cx="18" cy="18" r="1.7" fill="#fff" opacity="0.95"></circle>
</svg>