<svg xmlns="http://www.w3.org/2000/svg" width="376" height="72" viewBox="0 0 376 72" role="img" aria-label="Extending the plugin">
  <defs>
    <linearGradient id="pill" x1="0" y1="0" x2="1" y2="0">
      <stop offset="0" stop-color="#FFD9EC"></stop><stop offset="1" stop-color="#EAD9FF"></stop>
    </linearGradient>
    <linearGradient id="chip" x1="0" y1="0" x2="1" y2="1">
      <stop offset="0" stop-color="#FF9FCF"></stop><stop offset="1" stop-color="#B98CFF"></stop>
    </linearGradient>
    <filter id="sh" x="-20%" y="-30%" width="140%" height="170%">
      <feDropShadow dx="0" dy="4" stdDeviation="5" flood-color="#B98CFF" flood-opacity="0.22"></feDropShadow>
    </filter>
  </defs>
  <rect x="6" y="8" width="364" height="56" rx="28" fill="url(#pill)" filter="url(#sh)"></rect>
  <rect x="42" y="16" width="40" height="40" rx="13" fill="url(#chip)"></rect>
  <g transform="translate(51.00 25.00) scale(0.9167)"><path d="M5 6.5A1.5 1.5 0 0 1 6.5 5H10V4a2 2 0 0 1 4 0v1h3.5A1.5 1.5 0 0 1 19 6.5V10h1a2 2 0 0 1 0 4h-1v3.5a1.5 1.5 0 0 1-1.5 1.5H14v-1a2 2 0 0 0-4 0v1H6.5A1.5 1.5 0 0 1 5 17.5V14H4a2 2 0 0 1 0-4h1Z" fill="none" stroke="#fff" stroke-width="1.7" stroke-linejoin="round"></path></g>
  <text x="96" y="37" font-family="&#39;Trebuchet MS&#39;,&#39;Segoe UI&#39;,system-ui,-apple-system,Helvetica,Arial,sans-serif" font-size="25" font-weight="700" fill="#5B3E8E" dominant-baseline="central">Extending the plugin</text>
</svg>
